<svg xmlns="http://www.w3.org/2000/svg" viewBox="0 0 100 100" fill="none">
  <circle cx="50" cy="50" r="50" fill="#1DB954" />
  <g fill="#121212">
    <!-- Top Arc -->
    <path d="M72.2 38.6C57.8 30.1 34.1 29.3 20.3 33.5C18.1 34.2 15.7 32.9 15 30.7C14.3 28.5 15.6 26.1 17.8 25.4C33.6 20.6 59.8 21.5 76.5 31.4C78.5 32.6 79.1 35.2 77.9 37.2C76.7 39.1 74.1 39.7 72.2 38.6Z" />
    <!-- Middle Arc -->
    <path d="M68.5 50.8C55.9 43.1 36.8 40.8 22.3 45.2C20.4 45.8 18.3 44.7 17.7 42.8C17.1 40.9 18.2 38.8 20.1 38.2C36.8 33.1 57.8 35.7 72.2 44.5C74 45.6 74.5 48 73.4 49.8C72.3 51.5 69.9 52 68.5 50.8Z" />
    <!-- Bottom Arc -->
    <path d="M63.8 62.7C52.9 56 38.4 54.4 25.1 58.5C23.4 59 21.6 58 21.1 56.3C20.6 54.6 21.6 52.8 23.3 52.3C38.3 47.7 54.3 49.6 66.7 57.2C68.2 58.1 68.7 60.1 67.8 61.6C66.9 63.1 64.9 63.5 63.8 62.7Z" />
  </g>
</svg>
